<svg width="291" height="71" viewBox="0 0 291 71" fill="none" xmlns="http://www.w3.org/2000/svg">
<path fill-rule="evenodd" clip-rule="evenodd" d="M24.1306 61.4328C29.0031 64.0094 34.4318 65.3552 39.9436 65.353C45.662 65.3566 51.2878 63.9091 56.2944 61.1461C61.3009 58.383 65.5245 54.3948 68.5697 49.5547C66.0529 55.0572 62.1793 59.83 57.3124 63.4253C52.4455 67.0205 46.745 69.3202 40.7458 70.1086C34.7465 70.897 28.6454 70.1483 23.0148 67.9326C17.3843 65.7169 12.409 62.107 8.55595 57.4416C4.70286 52.7762 2.09831 47.2083 0.986728 41.2605C-0.124856 35.3127 0.292977 29.1799 2.20101 23.4379C4.10905 17.6958 7.44472 12.5326 11.895 8.43295C16.3452 4.33327 21.7642 1.43151 27.6432 0C19.711 3.10383 13.2394 9.08248 9.51827 16.7445C5.79711 24.4066 5.09954 33.1894 7.56458 41.3428C8.6717 38.9106 10.8119 36.2605 13.7758 33.5711C13.3901 24.9953 17.0253 17.0209 23.4152 12.5903C18.1847 17.1604 15.2534 24.3437 15.5694 32.0194C19.1676 29.0707 23.7051 26.1569 28.8898 23.57C23.4566 26.51 18.8973 29.7986 15.6283 33.0176C15.8005 35.2111 16.2261 37.3773 16.8967 39.4729C17.9674 42.8466 19.6684 45.9867 21.9092 48.7265C28.188 48.5086 36.3302 46.5188 44.7055 42.8139C56.666 37.5376 65.7431 30.2825 68.5763 24.3829C66.447 30.7815 56.4568 39.1133 42.9904 45.0543C36.182 48.0531 29.5284 49.9884 23.8118 50.8144C29.7899 56.69 38.1304 59.242 45.9412 56.7466C47.8388 56.1442 49.6361 55.2628 51.2742 54.1314C49.1966 55.9492 46.7681 57.3215 44.1389 58.1632C35.8638 60.8068 26.9937 57.7862 20.9678 51.15C17.4372 51.442 14.3642 51.2546 11.9887 50.5703C15.0897 55.127 19.2581 58.8562 24.1306 61.4328ZM18.9867 48.696C16.1018 44.626 14.3337 39.871 13.8586 34.9049C10.6985 38.5663 9.37346 42.025 10.5242 44.6424C11.5986 47.0789 14.665 48.4171 18.9867 48.696ZM131.911 23.6191C133.334 24.3048 134.589 25.2945 135.588 26.5184L135.586 17.7878C133.034 16.3734 130.167 15.624 127.25 15.6084C116.285 15.6084 108.792 24.9863 108.792 35.6042C108.792 45.9192 116.579 55.0007 127.099 55.0007C130.135 55.0007 132.855 54.057 135.584 52.7668V44.0842C133.555 46.4161 130.429 48.0528 127.302 48.0528C120.504 48.0528 116.337 41.7522 116.337 35.4495C116.337 28.9985 120.356 22.5497 127.352 22.5497C128.932 22.5683 130.488 22.9334 131.911 23.6191ZM93.661 31.1822V22.9464H105.72V16.5935H86.3666V54.0069H105.72V47.6562H93.661V37.5329H105.266V31.1822H93.661ZM165.112 47.6562V54.0069H137.97L154.444 22.9464H140.496V16.5935H165.995L149.579 47.6562H165.112ZM187.444 54.504C197.958 54.504 206.841 45.8214 206.841 35.3015C206.841 24.7817 197.958 16.099 187.444 16.099C176.879 16.099 168.048 24.7817 168.048 35.3015C168.048 45.8214 176.931 54.504 187.444 54.504ZM187.451 52.2702C178.121 52.2702 170.43 44.5312 170.43 35.3015C170.43 26.0719 178.11 18.3307 187.451 18.3307C196.728 18.3307 204.47 26.0719 204.47 35.3015C204.47 44.4811 196.728 52.2702 187.451 52.2702ZM212.644 16.5935H219.4C224.849 16.5935 229.177 17.487 233.294 21.3075C237.217 24.9797 239.248 29.9923 239.248 35.3514C239.268 37.9049 238.768 40.4357 237.778 42.7898C236.789 45.1439 235.33 47.2719 233.492 49.0444C229.375 53.0153 224.958 54.0069 219.4 54.0069H212.644V16.5935ZM219.344 51.7752C224.256 51.7752 228.325 50.7814 231.897 47.2595C233.508 45.6528 234.777 43.7376 235.631 41.6285C236.484 39.5194 236.902 37.2599 236.862 34.9852C236.821 32.7104 236.322 30.4673 235.394 28.3901C234.466 26.3129 233.128 24.4443 231.461 22.8962C227.889 19.6708 224.018 18.8273 219.354 18.8273H215.037V51.7752H219.344ZM247.377 32.4201V18.8252H262.85V16.5935H244.979V54.0047H262.85V51.773H247.377V34.654H262.46V32.4201H247.377ZM267.124 16.5935H269.753L278.337 32.6708L286.922 16.5935H289.552L279.775 34.9003L290.047 54.0025H287.462L278.333 37.0818L269.301 54.0025H266.721L276.944 34.9003L267.124 16.5935Z" fill="white"/>
<path fill-rule="evenodd" clip-rule="evenodd" d="M24.1306 61.4328C29.0031 64.0094 34.4318 65.3552 39.9436 65.353C45.662 65.3566 51.2878 63.9091 56.2944 61.1461C61.3009 58.383 65.5245 54.3948 68.5697 49.5547C66.0529 55.0572 62.1793 59.83 57.3124 63.4253C52.4455 67.0205 46.745 69.3202 40.7458 70.1086C34.7465 70.897 28.6454 70.1483 23.0148 67.9326C17.3843 65.7169 12.409 62.107 8.55595 57.4416C4.70286 52.7762 2.09831 47.2083 0.986728 41.2605C-0.124856 35.3127 0.292977 29.1799 2.20101 23.4379C4.10905 17.6958 7.44472 12.5326 11.895 8.43295C16.3452 4.33327 21.7642 1.43151 27.6432 0C19.711 3.10383 13.2394 9.08248 9.51827 16.7445C5.79711 24.4066 5.09954 33.1894 7.56458 41.3428C8.6717 38.9106 10.8119 36.2605 13.7758 33.5711C13.3901 24.9953 17.0253 17.0209 23.4152 12.5903C18.1847 17.1604 15.2534 24.3437 15.5694 32.0194C19.1676 29.0707 23.7051 26.1569 28.8898 23.57C23.4566 26.51 18.8973 29.7986 15.6283 33.0176C15.8005 35.2111 16.2261 37.3773 16.8967 39.4729C17.9674 42.8466 19.6684 45.9867 21.9092 48.7265C28.188 48.5086 36.3302 46.5188 44.7055 42.8139C56.666 37.5376 65.7431 30.2825 68.5763 24.3829C66.447 30.7815 56.4568 39.1133 42.9904 45.0543C36.182 48.0531 29.5284 49.9884 23.8118 50.8144C29.7899 56.69 38.1304 59.242 45.9412 56.7466C47.8388 56.1442 49.6361 55.2628 51.2742 54.1314C49.1966 55.9492 46.7681 57.3215 44.1389 58.1632C35.8638 60.8068 26.9937 57.7862 20.9678 51.15C17.4372 51.442 14.3642 51.2546 11.9887 50.5703C15.0897 55.127 19.2581 58.8562 24.1306 61.4328ZM18.9867 48.696C16.1018 44.626 14.3337 39.871 13.8586 34.9049C10.6985 38.5663 9.37346 42.025 10.5242 44.6424C11.5986 47.0789 14.665 48.4171 18.9867 48.696ZM131.911 23.6191C133.334 24.3048 134.589 25.2945 135.588 26.5184L135.586 17.7878C133.034 16.3734 130.167 15.624 127.25 15.6084C116.285 15.6084 108.792 24.9863 108.792 35.6042C108.792 45.9192 116.579 55.0007 127.099 55.0007C130.135 55.0007 132.855 54.057 135.584 52.7668V44.0842C133.555 46.4161 130.429 48.0528 127.302 48.0528C120.504 48.0528 116.337 41.7522 116.337 35.4495C116.337 28.9985 120.356 22.5497 127.352 22.5497C128.932 22.5683 130.488 22.9334 131.911 23.6191ZM93.661 31.1822V22.9464H105.72V16.5935H86.3666V54.0069H105.72V47.6562H93.661V37.5329H105.266V31.1822H93.661ZM165.112 47.6562V54.0069H137.97L154.444 22.9464H140.496V16.5935H165.995L149.579 47.6562H165.112ZM187.444 54.504C197.958 54.504 206.841 45.8214 206.841 35.3015C206.841 24.7817 197.958 16.099 187.444 16.099C176.879 16.099 168.048 24.7817 168.048 35.3015C168.048 45.8214 176.931 54.504 187.444 54.504ZM187.451 52.2702C178.121 52.2702 170.43 44.5312 170.43 35.3015C170.43 26.0719 178.11 18.3307 187.451 18.3307C196.728 18.3307 204.47 26.0719 204.47 35.3015C204.47 44.4811 196.728 52.2702 187.451 52.2702ZM212.644 16.5935H219.4C224.849 16.5935 229.177 17.487 233.294 21.3075C237.217 24.9797 239.248 29.9923 239.248 35.3514C239.268 37.9049 238.768 40.4357 237.778 42.7898C236.789 45.1439 235.33 47.2719 233.492 49.0444C229.375 53.0153 224.958 54.0069 219.4 54.0069H212.644V16.5935ZM219.344 51.7752C224.256 51.7752 228.325 50.7814 231.897 47.2595C233.508 45.6528 234.777 43.7376 235.631 41.6285C236.484 39.5194 236.902 37.2599 236.862 34.9852C236.821 32.7104 236.322 30.4673 235.394 28.3901C234.466 26.3129 233.128 24.4443 231.461 22.8962C227.889 19.6708 224.018 18.8273 219.354 18.8273H215.037V51.7752H219.344ZM247.377 32.4201V18.8252H262.85V16.5935H244.979V54.0047H262.85V51.773H247.377V34.654H262.46V32.4201H247.377ZM267.124 16.5935H269.753L278.337 32.6708L286.922 16.5935H289.552L279.775 34.9003L290.047 54.0025H287.462L278.333 37.0818L269.301 54.0025H266.721L276.944 34.9003L267.124 16.5935Z" fill="url(#paint0_linear_256_1892)"/>
<defs>
<linearGradient id="paint0_linear_256_1892" x1="0.378908" y1="-4.99197" x2="283.149" y2="37.0302" gradientUnits="userSpaceOnUse">
<stop stop-color="#36A1CF"/>
<stop offset="0.513363" stop-color="#130F40"/>
<stop offset="1" stop-color="#5D9C6B"/>
</linearGradient>
</defs>
</svg>
