<svg width="32" height="32" viewBox="0 0 32 32" fill="none" xmlns="http://www.w3.org/2000/svg">
<g id="Frame 47920">
<rect width="32" height="32" rx="16" fill="white"/>
<path id="Vector" d="M17.7098 25.0858C15.9857 25.0865 14.2875 24.666 12.7633 23.8609C11.2391 23.0559 9.93512 21.8907 8.96507 20.467C9.70817 20.6808 10.6694 20.7394 11.7739 20.6482C13.6589 22.7216 16.4336 23.6653 19.0222 22.8394C19.8447 22.5764 20.6043 22.1476 21.2543 21.5797C20.7418 21.9332 20.1796 22.2085 19.586 22.3968C17.1426 23.1764 14.5336 22.3791 12.6635 20.5433C14.4518 20.2852 16.5331 19.6806 18.6629 18.7436C22.8754 16.8874 26.0006 14.2842 26.6666 12.285C25.7804 14.1283 22.9409 16.3951 19.1995 18.0436C16.5795 19.2012 14.0325 19.8229 12.0684 19.891C11.3674 19.0349 10.8353 18.0538 10.5004 16.9997C10.2906 16.345 10.1575 15.6682 10.1036 14.9828C11.1262 13.9771 12.5524 12.9496 14.252 12.031C12.6301 12.8393 11.2107 13.7497 10.0852 14.671C9.98632 12.2727 10.9033 10.0284 12.5395 8.60048C10.5406 9.9848 9.40343 12.4763 9.5241 15.1558C8.59692 15.996 7.92745 16.8241 7.58112 17.584C6.81001 15.0365 7.02822 12.2924 8.19227 9.89844C9.35631 7.5045 11.3807 5.63651 13.8621 4.66675C12.023 5.11401 10.3279 6.02064 8.93574 7.30155C7.54362 8.58246 6.50017 10.1957 5.9033 11.9897C5.30643 13.7838 5.17573 15.6999 5.52345 17.5583C5.87117 19.4166 6.68592 21.1562 7.89124 22.6139C9.09655 24.0716 10.6529 25.1995 12.4142 25.8917C14.1756 26.584 16.0841 26.8179 17.9608 26.5716C19.8374 26.3253 21.6207 25.6068 23.1431 24.4835C24.6656 23.3602 25.8773 21.8689 26.6646 20.1497C25.712 21.662 24.3908 22.9081 22.8246 23.7713C21.2585 24.6346 19.4987 25.0869 17.7098 25.0858ZM9.55001 15.5725C9.69862 17.1241 10.2517 18.6098 11.1542 19.8814C9.80225 19.7943 8.84303 19.3762 8.50693 18.6149C8.14697 17.7971 8.56147 16.7165 9.55001 15.5725Z" fill="#2E3478"/>
</g>
</svg>
