<svg width="150" height="37" viewBox="0 0 150 37" fill="none" xmlns="http://www.w3.org/2000/svg">
<g id="main logo 1" clip-path="url(#clip0_6827_2634)">
<path id="Vector" d="M48.4468 12.1041V16.3611H54.4454V19.6437H48.4468V24.8763H54.6797V28.1589H44.6764V8.82031H54.6797V12.1041H48.4468Z" fill="#2E3478"/>
<path id="Vector_2" d="M70.1184 13.9504C69.6021 13.3178 68.9533 12.8063 68.2177 12.4518C67.4822 12.0974 66.6778 11.9087 65.8613 11.8991C62.2453 11.8991 60.168 15.2324 60.168 18.5668C60.168 21.8246 62.3219 25.0814 65.8354 25.0814C67.4519 25.0814 69.0673 24.2354 70.1161 23.03V27.518C68.7057 28.1849 67.2999 28.6726 65.7306 28.6726C60.293 28.6726 56.2681 23.9785 56.2681 18.6468C56.2681 13.1585 60.141 8.31116 65.8084 8.31116C67.3164 8.31919 68.7982 8.70659 70.1172 9.43766L70.1184 13.9504Z" fill="#2E3478"/>
<path id="Vector_3" d="M85.379 24.8763V28.1589H71.3496L79.8648 12.1041H72.6552V8.82031H85.8353L77.3505 24.8763H85.379Z" fill="#2E3478"/>
<path id="Vector_4" d="M106.948 18.4903C106.948 23.9279 102.357 28.4159 96.9224 28.4159C91.4882 28.4159 86.8966 23.9279 86.8966 18.4903C86.8966 13.0527 91.4612 8.5647 96.9224 8.5647C102.357 8.5647 106.948 13.0527 106.948 18.4903ZM88.1279 18.4903C88.1279 23.261 92.1033 27.2612 96.9258 27.2612C101.721 27.2612 105.723 23.2351 105.723 18.4903C105.723 13.7196 101.721 9.71823 96.9258 9.71823C92.0976 9.71823 88.1279 13.7196 88.1279 18.4903Z" fill="#2E3478"/>
<path id="Vector_5" d="M109.948 8.82031H113.44C116.257 8.82031 118.494 9.28218 120.622 11.2569C122.65 13.1551 123.699 15.746 123.699 18.5161C123.71 19.836 123.451 21.1441 122.94 22.3609C122.428 23.5777 121.674 24.6777 120.724 25.5939C118.596 27.6464 116.313 28.1589 113.44 28.1589H109.948V8.82031ZM113.411 27.0054C115.95 27.0054 118.053 26.4917 119.9 24.6713C120.732 23.8408 121.389 22.8508 121.83 21.7607C122.271 20.6705 122.487 19.5026 122.466 18.3268C122.445 17.151 122.187 15.9916 121.707 14.9179C121.228 13.8442 120.536 12.8783 119.674 12.0781C117.828 10.4109 115.827 9.97497 113.417 9.97497H111.185V27.0054H113.411Z" fill="#2E3478"/>
<path id="Vector_6" d="M127.901 9.97385V17.001H135.697V18.1556H127.901V27.0043H135.899V28.1578H126.662V8.82031H135.899V9.97385H127.901Z" fill="#2E3478"/>
<path id="Vector_7" d="M138.108 8.82031H139.467L143.904 17.1305L148.341 8.82031H149.701L144.648 18.2829L149.957 28.1567H148.621L143.902 19.4105L139.234 28.1567H137.9L143.184 18.2829L138.108 8.82031Z" fill="#2E3478"/>
<path id="Vector_8" d="M20.6807 34.0236C17.8317 34.0248 15.0257 33.3291 12.5072 31.9973C9.98862 30.6655 7.83402 28.7379 6.23114 26.3826C7.45902 26.7363 9.04739 26.8332 10.8723 26.6822C13.9871 30.1124 18.5719 31.6737 22.8493 30.3073C24.2082 29.8722 25.4635 29.1629 26.5374 28.2233C25.6907 28.8081 24.7617 29.2637 23.7809 29.5751C19.7435 30.8649 15.4324 29.5458 12.3424 26.5088C15.2972 26.0818 18.7364 25.0815 22.2556 23.5314C29.2162 20.4606 34.3801 16.154 35.4807 12.8466C34.0163 15.896 29.3244 19.6461 23.1421 22.3734C18.813 24.2884 14.6044 25.3169 11.359 25.4296C10.2007 24.0133 9.32148 22.3903 8.76801 20.6464C8.42142 19.5632 8.20142 18.4436 8.11239 17.3098C9.80214 15.6459 12.1588 13.946 14.9671 12.4264C12.2872 13.7635 9.94183 15.2697 8.08198 16.7938C7.91863 12.8263 9.43377 9.11334 12.1374 6.75107C8.83448 9.04125 6.95548 13.1631 7.15487 17.5959C5.62283 18.986 4.5166 20.3558 3.94434 21.613C2.67019 17.3986 3.03076 12.8588 4.95419 8.89837C6.87762 4.93793 10.2227 1.84763 14.3228 0.243286C11.284 0.983222 8.48298 2.48311 6.18269 4.60219C3.88239 6.72128 2.15821 9.39006 1.17197 12.3581C0.185722 15.3261 -0.0302521 18.4961 0.544315 21.5704C1.11888 24.6448 2.46515 27.5228 4.45677 29.9343C6.44839 32.3458 9.02006 34.2117 11.9304 35.357C14.8408 36.5022 17.9944 36.8893 21.0954 36.4818C24.1963 36.0742 27.1429 34.8855 29.6585 33.0272C32.1742 31.1689 34.1764 28.7018 35.4773 25.8576C33.9033 28.3594 31.7201 30.4209 29.1323 31.8491C26.5445 33.2773 23.6365 34.0255 20.6807 34.0236ZM7.19767 18.2853C7.44323 20.8522 8.35714 23.31 9.84833 25.4138C7.61448 25.2696 6.02949 24.5779 5.47413 23.3185C4.87934 21.9656 5.56425 20.1778 7.19767 18.2853Z" fill="#2E3478"/>
</g>
<defs>
<clipPath id="clip0_6827_2634">
<rect width="150" height="36.8812" fill="white"/>
</clipPath>
</defs>
</svg>
